<svg width="502" height="105" viewBox="0 0 502 105" xmlns="http://www.w3.org/2000/svg"><g fill="none" fill-rule="nonzero"><path d="M500.67 101.5c.73 0 1.33.6 1.33 1.33v.34c0 .73-.6 1.33-1.33 1.33H1.33c-.73 0-1.33-.6-1.33-1.33v-.34c0-.73.6-1.33 1.33-1.33h499.34zm-.67 1.33v.34c0-.06 0-.12.02-.17a.67.67 0 01-.02-.17zm-498 .09l-.02.08.01.08.01.09v-.25zM375.24.5c6.61 0 12.04.54 16.3 1.63 4.3 1.1 7.69 2.64 10.18 4.64a15.42 15.42 0 015.17 7.27c.9 2.73 1.35 5.72 1.35 8.96v34.1c0 3.24-.45 6.23-1.35 8.96a15.13 15.13 0 01-5.18 7.23c-2.49 1.96-5.88 3.48-10.17 4.58-4.26 1.09-9.69 1.63-16.3 1.63-6.61 0-12.04-.54-16.3-1.63-4.29-1.1-7.68-2.62-10.17-4.58a15.46 15.46 0 01-5.23-7.22 27.59 27.59 0 01-1.4-8.97V23c0-3.24.47-6.23 1.4-8.97.97-2.82 2.71-5.24 5.22-7.26 2.5-2 5.89-3.54 10.18-4.64 4.26-1.09 9.69-1.63 16.3-1.63zM69.75 2c1.84 0 3.26.45 4.2 1.4.95.94 1.4 2.36 1.4 4.2v11.9c0 1.84-.45 3.26-1.4 4.2-.94.95-2.36 1.4-4.2 1.4h-23.5v6.4h15.4c1.84 0 3.26.45 4.2 1.4.95.94 1.4 2.36 1.4 4.2v12c0 1.84-.45 3.26-1.4 4.2-.94.95-2.36 1.4-4.2 1.4h-15.4v17.7c0 1.84-.45 3.26-1.4 4.2-.94.95-2.36 1.4-4.2 1.4h-15.5c-1.84 0-3.26-.45-4.2-1.4-.95-.94-1.4-2.36-1.4-4.2V7.6c0-1.84.45-3.26 1.4-4.2.94-.95 2.36-1.4 4.2-1.4h44.6zm56.7 0a7.7 7.7 0 014.3 1.11 6.53 6.53 0 012.53 3.43l8.7 22.7a75.59 75.59 0 013.1 9.48c.64 2.7.97 5.13.97 7.28v26.4c0 1.84-.45 3.26-1.4 4.2-.94.95-2.36 1.4-4.2 1.4h-15.1c-1.9 0-3.38-.46-4.4-1.43-1-.97-1.5-2.38-1.5-4.17v-12h-13.7v12c0 1.84-.45 3.26-1.4 4.2-.94.95-2.36 1.4-4.2 1.4h-14.7c-1.84 0-3.26-.45-4.2-1.4-.95-.94-1.4-2.36-1.4-4.2V46c0-2.15.33-4.58.98-7.28a75.57 75.57 0 013.09-9.48L92.6 6.68a6.57 6.57 0 012.55-3.57A7.9 7.9 0 0199.55 2h26.9zm77.8 0c1.84 0 3.26.45 4.2 1.4.95.94 1.4 2.36 1.4 4.2v12.1c0 1.84-.45 3.26-1.4 4.2-.94.95-2.36 1.4-4.2 1.4h-20.1c-1.47 0-2.54.27-3.21.76-.59.43-.89 1.14-.89 2.24v23.8c0 1.09.3 1.75.85 2.11.68.45 1.76.69 3.25.69h20.1c1.84 0 3.26.45 4.2 1.4.95.94 1.4 2.36 1.4 4.2v11.9c0 1.84-.45 3.26-1.4 4.2-.94.95-2.36 1.4-4.2 1.4h-24.4c-8.95 0-15.62-1.83-20-5.54-4.4-3.74-6.6-9.39-6.6-16.86V24.5c0-7.54 2.2-13.22 6.6-16.96 4.38-3.71 11.05-5.54 20-5.54h24.4zm67.2 0c1.84 0 3.26.45 4.2 1.4.95.94 1.4 2.36 1.4 4.2v12.1c0 1.84-.45 3.26-1.4 4.2-.94.95-2.36 1.4-4.2 1.4h-12.7v47.1c0 1.84-.45 3.26-1.4 4.2-.94.95-2.36 1.4-4.2 1.4h-16.2c-1.84 0-3.26-.45-4.2-1.4-.95-.94-1.4-2.36-1.4-4.2V25.3h-12.7c-1.84 0-3.26-.45-4.2-1.4-.95-.94-1.4-2.36-1.4-4.2V7.6c0-1.84.45-3.26 1.4-4.2.94-.95 2.36-1.4 4.2-1.4h52.8zm57.9 0c1.84 0 3.26.45 4.2 1.4.95.94 1.4 2.36 1.4 4.2v12.1c0 1.84-.45 3.26-1.4 4.2-.94.95-2.36 1.4-4.2 1.4h-7.7v29.6h7.7c1.84 0 3.26.45 4.2 1.4.95.94 1.4 2.36 1.4 4.2v11.9c0 1.84-.45 3.26-1.4 4.2-.94.95-2.36 1.4-4.2 1.4h-42.6c-1.84 0-3.26-.45-4.2-1.4-.95-.94-1.4-2.36-1.4-4.2V60.5c0-1.84.45-3.26 1.4-4.2.94-.95 2.36-1.4 4.2-1.4h7.9V25.3h-7.9c-1.84 0-3.26-.45-4.2-1.4-.95-.94-1.4-2.36-1.4-4.2V7.6c0-1.84.45-3.26 1.4-4.2.94-.95 2.36-1.4 4.2-1.4h42.6zm103.6 0c1.6 0 2.98.26 4.12.8 1.13.52 2.23 1.36 3.33 2.54l15.85 18.1V7.6c0-1.84.45-3.26 1.4-4.2.94-.95 2.36-1.4 4.2-1.4h15c1.84 0 3.26.45 4.2 1.4.95.94 1.4 2.36 1.4 4.2v64.8c0 1.84-.45 3.26-1.4 4.2-.94.95-2.36 1.4-4.2 1.4h-15c-1.84 0-3.26-.45-4.2-1.4-.95-.94-1.4-2.36-1.4-4.2V60.86l-13.1-15.88V72.4c0 1.84-.45 3.26-1.4 4.2-.94.95-2.36 1.4-4.2 1.4h-15c-1.84 0-3.26-.45-4.2-1.4-.95-.94-1.4-2.36-1.4-4.2V7.6c0-1.84.45-3.26 1.4-4.2.94-.95 2.36-1.4 4.2-1.4h10.4zm-57.7 1.5c-6.13 0-11.18.5-15.16 1.47-3.94.97-7 2.31-9.17 4.02a13.27 13.27 0 00-4.48 6c-.8 2.23-1.23 4.7-1.28 7.42l-.01.59v34.1c0 2.96.43 5.62 1.3 8.01.82 2.32 2.3 4.3 4.46 5.95 2.18 1.67 5.24 3 9.18 3.97 3.98.98 9.03 1.47 15.16 1.47 6.13 0 11.16-.5 15.1-1.47 3.92-.97 6.96-2.3 9.14-3.97a12.96 12.96 0 004.47-5.95c.8-2.23 1.23-4.7 1.28-7.42l.01-.59V23c0-2.96-.43-5.62-1.3-8.01a13.27 13.27 0 00-4.47-6c-2.17-1.7-5.21-3.05-9.12-4.02-3.95-.98-8.98-1.47-15.11-1.47zM126.45 5h-26.9c-1.15 0-2.05.22-2.71.64-.58.37-1.03.94-1.36 1.76l-.1.26-8.7 22.7a75.13 75.13 0 00-2.9 8.98 29.57 29.57 0 00-.93 6.25V72.4c0 1.03.2 1.7.56 2.04.32.33.91.53 1.81.56h14.93c1.03 0 1.7-.2 2.04-.56.33-.32.53-.91.56-1.81V57.4h19.7v15c0 1 .22 1.65.62 2 .39.35 1.06.57 2.03.6h15.35c1.03 0 1.7-.2 2.04-.56.33-.32.53-.91.56-1.81V46c0-1.91-.3-4.14-.92-6.66a72.88 72.88 0 00-2.67-8.34l-.24-.64-8.71-22.73a3.7 3.7 0 00-1.45-1.99 4.77 4.77 0 00-2.61-.64zm77.8 0h-24.4c-8.12 0-14.08 1.62-17.9 4.82-3.7 3.08-5.6 7.79-5.7 14.2V55.6c0 6.66 1.9 11.5 5.69 14.63 3.74 3.09 9.51 4.7 17.35 4.77H204.25c1.03 0 1.7-.2 2.04-.56.33-.32.53-.91.56-1.81V60.5c0-1.03-.2-1.7-.56-2.04-.32-.33-.91-.53-1.81-.56H184.15c-2.27 0-4-.43-5.2-1.36-1.21-.92-1.83-2.33-1.9-4.13V28.3c0-1.95.61-3.48 1.86-4.52 1.14-.95 2.77-1.43 4.86-1.48h20.48c1.03 0 1.7-.2 2.04-.56.33-.32.53-.91.56-1.81V7.6c0-1.03-.2-1.7-.56-2.04-.35-.35-1.01-.56-2.04-.56zM69.75 5h-44.6c-1.03 0-1.7.2-2.04.56-.33.32-.53.91-.56 1.81V72.4c0 1.03.2 1.7.56 2.04.32.33.91.53 1.81.56h15.73c1.03 0 1.7-.2 2.04-.56.33-.32.53-.91.56-1.81V51.7h18.4c1.03 0 1.7-.2 2.04-.56.33-.32.53-.91.56-1.81V37.1c0-1.03-.2-1.7-.56-2.04-.32-.33-.91-.53-1.81-.56H43.25V22.1h26.5c1.03 0 1.7-.2 2.04-.56.33-.32.53-.91.56-1.81V7.6c0-1.03-.2-1.7-.56-2.04-.35-.35-1.01-.56-2.04-.56zm363.2 0h-10.4c-1.03 0-1.7.2-2.04.56-.33.32-.53.91-.56 1.81V72.4c0 1.03.2 1.7.56 2.04.32.33.91.53 1.81.56h15.23c1.03 0 1.7-.2 2.04-.56.33-.32.53-.91.56-1.81V36.62l19.1 23.12V72.4c0 1.03.2 1.7.56 2.04.32.33.91.53 1.81.56h15.23c1.03 0 1.7-.2 2.04-.56.33-.32.53-.91.56-1.81V7.6c0-1.03-.2-1.7-.56-2.04-.32-.33-.91-.53-1.81-.56h-15.23c-1.03 0-1.7.2-2.04.56-.33.32-.53.91-.56 1.81v24.19l-1.75-2-19.4-22.2a6.85 6.85 0 00-2.3-1.85 7 7 0 00-2.85-.51zm-161.5 0h-52.8c-1.03 0-1.7.2-2.04.56-.33.32-.53.91-.56 1.81V19.7c0 1.03.2 1.7.56 2.04.32.33.91.53 1.81.56h15.93v50.1c0 1.03.2 1.7.56 2.04.32.33.91.53 1.81.56h16.43c1.03 0 1.7-.2 2.04-.56.33-.32.53-.91.56-1.81V22.3h15.7c1.03 0 1.7-.2 2.04-.56.33-.32.53-.91.56-1.81V7.6c0-1.03-.2-1.7-.56-2.04-.35-.35-1.01-.56-2.04-.56zm57.9 0h-42.6c-1.03 0-1.7.2-2.04.56-.33.32-.53.91-.56 1.81V19.7c0 1.03.2 1.7.56 2.04.32.33.91.53 1.81.56h11.13v35.6h-10.9c-1.03 0-1.7.2-2.04.56-.33.32-.53.91-.56 1.81V72.4c0 1.03.2 1.7.56 2.04.32.33.91.53 1.81.56h42.83c1.03 0 1.7-.2 2.04-.56.33-.32.53-.91.56-1.81V60.5c0-1.03-.2-1.7-.56-2.04-.32-.33-.91-.53-1.81-.56h-10.93V22.3h10.7c1.03 0 1.7-.2 2.04-.56.33-.32.53-.91.56-1.81V7.6c0-1.03-.2-1.7-.56-2.04-.35-.35-1.01-.56-2.04-.56zm45.7 5.8c8.02 0 13.57 1.3 16.66 4a13.33 13.33 0 014.64 10.5v29.5c0 4.28-1.56 7.81-4.64 10.5-3.1 2.7-8.64 4-16.66 4s-13.54-1.3-16.57-4c-3.01-2.7-4.53-6.22-4.53-10.5V25.3c0-4.28 1.52-7.8 4.53-10.5 3.03-2.7 8.55-4 16.57-4zm-50.1 1.2v3h-15.3v50h15.3v3h-33.8v-3h15.5V15h-15.5v-3h33.8zm-57.9 0v3h-20.5v53h-3V15h-20.5v-3h44zm-201.7 0v3h-30.9v26.6h22.8v3h-22.8V68h-3V12h33.9zm52.3 0c2.5 0 4.36.76 5.47 2.32.94 1.33 1.83 3 2.65 4.99l6.92 16.35a28.42 28.42 0 011.76 10.04V68h-3V50.8h-37V68h-3V45.7a28.42 28.42 0 011.77-10.06l6.4-16.4a21.6 21.6 0 012.62-4.93c1.15-1.56 3.05-2.31 5.61-2.31h9.8zm82.1 0v3h-17.7c-5.64 0-9.4.87-11.24 2.5-1.82 1.61-2.76 4.46-2.76 8.6v28c0 4.08.91 6.88 2.67 8.46 1.77 1.59 5.56 2.44 11.33 2.44h17.7v3h-17.7c-6.7 0-11.2-1.05-13.54-3.28-2.33-2.21-3.46-5.77-3.46-10.62v-28c0-4.98 1.15-8.61 3.52-10.83 2.36-2.22 6.85-3.27 13.48-3.27h17.7zm230.9-.1c.46 0 .89.12 1.25.37.27.18.58.45.96.82l.04.05 35.05 39.43V12h3v56h-3V57.08l-36.5-40.94V68h-3V14.1c0-.7.27-1.3.8-1.7.43-.32.9-.5 1.4-.5zM197.75 66v1l.5-.5-.5-.5zm95.4 0l-.5.5.5.5v-1zm15.5 0h-1v1h1v-1zm14.3 0v1l.5-.5-.5-.5zm-229.5 0h-1l.5.5.5-.5zm40 0h-1l.5.5.5-.5zm112.1 0h-1l.5.5.5-.5zm184.9 0h-1l.5.5.5-.5zm39.5 0h-1l.5.5.5-.5zm-436.5 0h-1l.5.5.5-.5zm341.6-52.2c-7.18 0-12 1.1-14.45 3.2a10.3 10.3 0 00-3.65 7.93V54.8c0 3.45 1.21 6.19 3.65 8.3 2.44 2.1 7.27 3.2 14.45 3.2 7.19 0 12.05-1.1 14.56-3.22a10.2 10.2 0 003.74-7.91V25.3c0-3.44-1.24-6.18-3.74-8.28-2.51-2.12-7.37-3.22-14.56-3.22zm.2 7.2c3.84 0 6.32.49 7.57 1.6a5.22 5.22 0 011.83 4v26.9c0 1.62-.62 3-1.83 4.1-1.25 1.11-3.73 1.6-7.57 1.6-3.84 0-6.32-.49-7.57-1.6a5.32 5.32 0 01-1.83-4.1V26.6c0-1.56.62-2.9 1.83-4 1.25-1.11 3.73-1.6 7.57-1.6zm0 3c-2.63 0-4.42.3-5.29.81-.72.43-1.06.94-1.1 1.63l-.01.16v26.9c0 .85.33 1.45 1.07 1.9.84.5 2.64.8 5.33.8 2.7 0 4.5-.3 5.33-.8a2.03 2.03 0 001.06-1.72l.01-.18V26.6c0-.78-.33-1.34-1.07-1.8-.84-.5-2.64-.8-5.33-.8zm92.7 28.57v2.63l1.75-.66-1.75-1.97zM117.65 15h-9.8c-1.7 0-2.78.45-3.38 1.32-.68.99-1.31 2.18-1.9 3.57l-.19.47L96 36.73a30.08 30.08 0 00-1.1 4.16c-.26 1.3-.4 2.72-.43 4.24l-.01.57v2.1h37v-2.1c0-1.74-.14-3.34-.43-4.8a31 31 0 00-.93-3.64l-.16-.47-6.9-16.3a23.9 23.9 0 00-2.2-4.17c-.6-.87-1.62-1.32-3.18-1.32zm-62.4 27.6v1l.5-.5-.5-.5zm-21.8 0h-1v1h1v-1zm80.4-20.3c.65 0 1.23.22 1.71.65.43.38.78.92 1.1 1.64l.05.11 5.1 16.5h-18.42l5.1-16.5.05-.1c.32-.73.67-1.27 1.1-1.65a2.53 2.53 0 011.71-.65h2.5zm-.18 3h-2.14l-.12.23-.13.24-3.78 12.43h10.2l-3.78-12.43-.25-.47zm317.78-11c0 .1-.02.18-.06.25a.84.84 0 01-1 .4l-.04-.01.07.05.02.02 1.01 1.13V14.3zM225.05 13l-.5.5.5.5v-1zm40 0v1l.5-.5-.5-.5zm43.6 0h-1v1h1v-1zm-15.5 0l-.5.5.5.5v-1zm29.8 0v1l.5-.5-.5-.5zm-125.2 0v1l.5-.5-.5-.5zm-134.4 0v1l.5-.5-.5-.5zm182.2 0h-1v1h1v-1zm-212.1 0l-1 1h1v-1zm435.5 1h1l-.5-.5-.5.5z" fill-opacity=".5" fill="#51BAFF"/><path d="M1.33 102.5h499.34c.18 0 .33.15.33.33v.34c0 .18-.15.33-.33.33H1.33a.33.33 0 01-.33-.33v-.34c0-.18.15-.33.33-.33zM25.15 77c-1.6 0-2.77-.37-3.5-1.1-.73-.73-1.1-1.9-1.1-3.5V7.6c0-1.6.37-2.77 1.1-3.5.73-.73 1.9-1.1 3.5-1.1h44.6c1.6 0 2.77.37 3.5 1.1.73.73 1.1 1.9 1.1 3.5v11.9c0 1.6-.37 2.77-1.1 3.5-.73.73-1.9 1.1-3.5 1.1h-24.5v8.4h16.4c1.6 0 2.77.37 3.5 1.1.73.73 1.1 1.9 1.1 3.5v12c0 1.6-.37 2.77-1.1 3.5-.73.73-1.9 1.1-3.5 1.1h-16.4v18.7c0 1.6-.37 2.77-1.1 3.5-.73.73-1.9 1.1-3.5 1.1h-15.5zm15.5-1c1.27 0 2.18-.28 2.75-.85.57-.57.85-1.48.85-2.75V52.7h17.4c1.27 0 2.18-.28 2.75-.85.57-.57.85-1.48.85-2.75v-12c0-1.27-.28-2.18-.85-2.75-.57-.57-1.48-.85-2.75-.85h-17.4V23.1h25.5c1.27 0 2.18-.28 2.75-.85.57-.57.85-1.48.85-2.75V7.6c0-1.27-.28-2.18-.85-2.75-.57-.57-1.48-.85-2.75-.85h-44.6c-1.27 0-2.18.28-2.75.85-.57.57-.85 1.48-.85 2.75v64.8c0 1.27.28 2.18.85 2.75.57.57 1.48.85 2.75.85h15.5zm-8.2-9V13h31.9v1h-30.9v28.6h22.8v1h-22.8V67h-1zm61-21.3v3.1h39v-3.1c0-1.8-.15-3.47-.45-5-.3-1.53-.68-2.97-1.15-4.3l-6.9-16.3a24.86 24.86 0 00-2.3-4.35c-.8-1.17-2.13-1.75-4-1.75h-9.8c-2 0-3.4.58-4.2 1.75a21.9 21.9 0 00-2.2 4.25l-6.4 16.4a31.07 31.07 0 00-1.15 4.3c-.3 1.53-.45 3.2-.45 5zm16-20.7c.27-.6.55-1.03.85-1.3.3-.27.65-.4 1.05-.4h2.5c.4 0 .75.13 1.05.4.3.27.58.7.85 1.3l4.7 15.2h-15.7l4.7-15.2zm5.4.4c-.13-.27-.27-.52-.4-.75a.65.65 0 00-.6-.35h-2.5a.65.65 0 00-.6.35c-.13.23-.27.48-.4.75l-4.2 13.8h12.9l-4.2-13.8zm17.6 41.6V49.8h-39V67h-1V45.7a27.43 27.43 0 011.7-9.7l6.4-16.4a20.62 20.62 0 012.5-4.7c.93-1.27 2.53-1.9 4.8-1.9h9.8c2.2 0 3.75.63 4.65 1.9a24.5 24.5 0 012.55 4.8l6.9 16.3a27.43 27.43 0 011.7 9.7V67h-1zm-28.7 5.4v-14h17.7v14c0 1.27.32 2.18.95 2.75.63.57 1.62.85 2.95.85h15.1c1.27 0 2.18-.28 2.75-.85.57-.57.85-1.48.85-2.75V46c0-2-.32-4.3-.95-6.9a76.09 76.09 0 00-2.95-9.1l-8.7-22.7a4.7 4.7 0 00-1.85-2.5 5.74 5.74 0 00-3.15-.8h-26.9c-1.33 0-2.42.27-3.25.8a4.7 4.7 0 00-1.85 2.5L85.75 30a76.09 76.09 0 00-2.95 9.1c-.63 2.6-.95 4.9-.95 6.9v26.4c0 1.27.28 2.18.85 2.75.57.57 1.48.85 2.75.85h14.7c1.27 0 2.18-.28 2.75-.85.57-.57.85-1.48.85-2.75zM85.45 77c-1.6 0-2.77-.37-3.5-1.1-.73-.73-1.1-1.9-1.1-3.5V46c0-2.07.32-4.42.95-7.05a74.64 74.64 0 013.05-9.35L93.55 7a5.6 5.6 0 012.15-3.05A6.93 6.93 0 0199.55 3h26.9c1.53 0 2.78.32 3.75.95a5.58 5.58 0 012.15 2.95l8.7 22.7c1.4 3.6 2.42 6.72 3.05 9.35.63 2.63.95 4.98.95 7.05v26.4c0 1.6-.37 2.77-1.1 3.5-.73.73-1.9 1.1-3.5 1.1h-15.1c-1.67 0-2.9-.38-3.7-1.15-.8-.77-1.2-1.92-1.2-3.45v-13h-15.7v13c0 1.6-.37 2.77-1.1 3.5-.73.73-1.9 1.1-3.5 1.1h-14.7zm123.4-4.6c0 1.6-.37 2.77-1.1 3.5-.73.73-1.9 1.1-3.5 1.1h-24.4c-8.73 0-15.18-1.77-19.35-5.3-4.17-3.53-6.25-8.9-6.25-16.1V24.5c0-7.27 2.08-12.67 6.25-16.2 4.17-3.53 10.62-5.3 19.35-5.3h24.4c1.6 0 2.77.37 3.5 1.1.73.73 1.1 1.9 1.1 3.5v12.1c0 1.6-.37 2.77-1.1 3.5-.73.73-1.9 1.1-3.5 1.1h-20.1c-1.67 0-2.93.32-3.8.95-.87.63-1.3 1.65-1.3 3.05v23.8c0 1.4.43 2.38 1.3 2.95.87.57 2.13.85 3.8.85h20.1c1.6 0 2.77.37 3.5 1.1.73.73 1.1 1.9 1.1 3.5v11.9zm-4.6 3.6c1.27 0 2.18-.28 2.75-.85.57-.57.85-1.48.85-2.75V60.5c0-1.27-.28-2.18-.85-2.75-.57-.57-1.48-.85-2.75-.85h-20.1c-2.07 0-3.6-.38-4.6-1.15-1-.77-1.5-1.98-1.5-3.65V28.3c0-1.67.5-2.92 1.5-3.75 1-.83 2.53-1.25 4.6-1.25h20.1c1.27 0 2.18-.28 2.75-.85.57-.57.85-1.48.85-2.75V7.6c0-1.27-.28-2.18-.85-2.75-.57-.57-1.48-.85-2.75-.85h-24.4c-8.33 0-14.52 1.68-18.55 5.05-4.03 3.37-6.05 8.52-6.05 15.45v31.1c0 6.93 2.02 12.07 6.05 15.4 4.03 3.33 10.22 5 18.55 5h24.4zm-5.5-10v1h-16.7c-6.47 0-10.75-1-12.85-3-2.1-2-3.15-5.3-3.15-9.9v-28c0-4.73 1.07-8.1 3.2-10.1s6.4-3 12.8-3h16.7v1h-16.7c-5.87 0-9.83.92-11.9 2.75-2.07 1.83-3.1 4.95-3.1 9.35v28c0 4.33 1 7.4 3 9.2 2 1.8 6 2.7 12 2.7h16.7zm38.2 11c-1.6 0-2.77-.37-3.5-1.1-.73-.73-1.1-1.9-1.1-3.5V24.3h-13.7c-1.6 0-2.77-.37-3.5-1.1-.73-.73-1.1-1.9-1.1-3.5V7.6c0-1.6.37-2.77 1.1-3.5.73-.73 1.9-1.1 3.5-1.1h52.8c1.6 0 2.77.37 3.5 1.1.73.73 1.1 1.9 1.1 3.5v12.1c0 1.6-.37 2.77-1.1 3.5-.73.73-1.9 1.1-3.5 1.1h-13.7v48.1c0 1.6-.37 2.77-1.1 3.5-.73.73-1.9 1.1-3.5 1.1h-16.2zm16.2-1c1.27 0 2.18-.28 2.75-.85.57-.57.85-1.48.85-2.75V23.3h14.7c1.27 0 2.18-.28 2.75-.85.57-.57.85-1.48.85-2.75V7.6c0-1.27-.28-2.18-.85-2.75-.57-.57-1.48-.85-2.75-.85h-52.8c-1.27 0-2.18.28-2.75.85-.57.57-.85 1.48-.85 2.75v12.1c0 1.27.28 2.18.85 2.75.57.57 1.48.85 2.75.85h14.7v49.1c0 1.27.28 2.18.85 2.75.57.57 1.48.85 2.75.85h16.2zm-8.6-9V14h-20.5v-1h42v1h-20.5v53h-1zm42.2 10c-1.6 0-2.77-.37-3.5-1.1-.73-.73-1.1-1.9-1.1-3.5V60.5c0-1.6.37-2.77 1.1-3.5.73-.73 1.9-1.1 3.5-1.1h8.9V24.3h-8.9c-1.6 0-2.77-.37-3.5-1.1-.73-.73-1.1-1.9-1.1-3.5V7.6c0-1.6.37-2.77 1.1-3.5.73-.73 1.9-1.1 3.5-1.1h42.6c1.6 0 2.77.37 3.5 1.1.73.73 1.1 1.9 1.1 3.5v12.1c0 1.6-.37 2.77-1.1 3.5-.73.73-1.9 1.1-3.5 1.1h-8.7v31.6h8.7c1.6 0 2.77.37 3.5 1.1.73.73 1.1 1.9 1.1 3.5v11.9c0 1.6-.37 2.77-1.1 3.5-.73.73-1.9 1.1-3.5 1.1h-42.6zm0-1h42.6c1.27 0 2.18-.28 2.75-.85.57-.57.85-1.48.85-2.75V60.5c0-1.27-.28-2.18-.85-2.75-.57-.57-1.48-.85-2.75-.85h-9.7V23.3h9.7c1.27 0 2.18-.28 2.75-.85.57-.57.85-1.48.85-2.75V7.6c0-1.27-.28-2.18-.85-2.75-.57-.57-1.48-.85-2.75-.85h-42.6c-1.27 0-2.18.28-2.75.85-.57.57-.85 1.48-.85 2.75v12.1c0 1.27.28 2.18.85 2.75.57.57 1.48.85 2.75.85h9.9v33.6h-9.9c-1.27 0-2.18.28-2.75.85-.57.57-.85 1.48-.85 2.75v11.9c0 1.27.28 2.18.85 2.75.57.57 1.48.85 2.75.85zm37.2-9h-31.8v-1h15.5V14h-15.5v-1h31.8v1h-15.3v52h15.3v1zm83.3-44v34.1c0 3.13-.43 6.02-1.3 8.65a14.13 14.13 0 01-4.85 6.75c-2.37 1.87-5.63 3.33-9.8 4.4-4.17 1.07-9.52 1.6-16.05 1.6-6.53 0-11.88-.53-16.05-1.6s-7.43-2.53-9.8-4.4c-2.37-1.87-4-4.12-4.9-6.75a26.6 26.6 0 01-1.35-8.65V23c0-3.13.45-6.02 1.35-8.65.9-2.63 2.53-4.9 4.9-6.8 2.37-1.9 5.63-3.38 9.8-4.45 4.17-1.07 9.52-1.6 16.05-1.6 6.53 0 11.88.53 16.05 1.6s7.43 2.55 9.8 4.45a14.42 14.42 0 014.85 6.8c.87 2.63 1.3 5.52 1.3 8.65zm-1 34.1V23c0-3.07-.45-5.85-1.35-8.35-.9-2.5-2.5-4.65-4.8-6.45-2.3-1.8-5.47-3.2-9.5-4.2s-9.15-1.5-15.35-1.5c-6.2 0-11.33.5-15.4 1.5s-7.25 2.4-9.55 4.2c-2.3 1.8-3.9 3.95-4.8 6.45-.9 2.5-1.35 5.28-1.35 8.35v34.1c0 3.07.45 5.85 1.35 8.35.9 2.5 2.5 4.63 4.8 6.4 2.3 1.77 5.48 3.15 9.55 4.15 4.07 1 9.2 1.5 15.4 1.5 6.2 0 11.32-.5 15.35-1.5 4.03-1 7.2-2.38 9.5-4.15 2.3-1.77 3.9-3.9 4.8-6.4.9-2.5 1.35-5.28 1.35-8.35zm-10.9-2.3c0 4-1.43 7.25-4.3 9.75s-8.2 3.75-16 3.75c-7.8 0-13.1-1.25-15.9-3.75-2.8-2.5-4.2-5.75-4.2-9.75V25.3c0-4 1.4-7.25 4.2-9.75 2.8-2.5 8.1-3.75 15.9-3.75 7.8 0 13.13 1.25 16 3.75 2.87 2.5 4.3 5.75 4.3 9.75v29.5zm-39.4 0c0 3.73 1.33 6.75 4 9.05 2.67 2.3 7.7 3.45 15.1 3.45 7.4 0 12.47-1.15 15.2-3.45 2.73-2.3 4.1-5.32 4.1-9.05V25.3c0-3.73-1.37-6.75-4.1-9.05-2.73-2.3-7.8-3.45-15.2-3.45-7.4 0-12.43 1.15-15.1 3.45-2.67 2.3-4 5.32-4 9.05v29.5zm10.9-1.3V26.6c0-1.27.5-2.35 1.5-3.25 1-.9 3.3-1.35 6.9-1.35 3.6 0 5.9.45 6.9 1.35 1 .9 1.5 1.98 1.5 3.25v26.9c0 1.33-.5 2.45-1.5 3.35-1 .9-3.3 1.35-6.9 1.35-3.6 0-5.9-.45-6.9-1.35-1-.9-1.5-2.02-1.5-3.35zm1-26.9v26.9c0 1.2.52 2.12 1.55 2.75 1.03.63 2.98.95 5.85.95 2.87 0 4.82-.32 5.85-.95a3.04 3.04 0 001.55-2.75V26.6c0-1.13-.52-2.02-1.55-2.65-1.03-.63-2.98-.95-5.85-.95-2.8 0-4.73.32-5.8.95-1.07.63-1.6 1.52-1.6 2.65zm64.3-12.8l36.8 41.4V13h1v54h-1V56.7l-37.8-42.4a1.64 1.64 0 00-.25-.2.49.49 0 00-.25-.1c-.07 0-.12.03-.15.1a.44.44 0 00-.05.2V67h-1V14.1c0-.4.13-.7.4-.9.27-.2.53-.3.8-.3s.5.07.7.2c.2.13.47.37.8.7zm5.4 62.2c1.27 0 2.18-.28 2.75-.85.57-.57.85-1.48.85-2.75v-33l17.1 20.7v12.3c0 1.27.28 2.18.85 2.75.57.57 1.48.85 2.75.85h15c1.27 0 2.18-.28 2.75-.85.57-.57.85-1.48.85-2.75V7.6c0-1.27-.28-2.18-.85-2.75-.57-.57-1.48-.85-2.75-.85h-15c-1.27 0-2.18.28-2.75.85-.57.57-.85 1.48-.85 2.75v21.3l-19.4-22.2a7.8 7.8 0 00-2.65-2.1c-.9-.4-1.98-.6-3.25-.6h-10.4c-1.27 0-2.18.28-2.75.85-.57.57-.85 1.48-.85 2.75v64.8c0 1.27.28 2.18.85 2.75.57.57 1.48.85 2.75.85h15zm0 1h-15c-1.6 0-2.77-.37-3.5-1.1-.73-.73-1.1-1.9-1.1-3.5V7.6c0-1.6.37-2.77 1.1-3.5.73-.73 1.9-1.1 3.5-1.1h10.4c1.47 0 2.7.23 3.7.7s2 1.23 3 2.3l17.6 20.1V7.6c0-1.6.37-2.77 1.1-3.5.73-.73 1.9-1.1 3.5-1.1h15c1.6 0 2.77.37 3.5 1.1.73.73 1.1 1.9 1.1 3.5v64.8c0 1.6-.37 2.77-1.1 3.5-.73.73-1.9 1.1-3.5 1.1h-15c-1.6 0-2.77-.37-3.5-1.1-.73-.73-1.1-1.9-1.1-3.5V60.5l-15.1-18.3v30.2c0 1.6-.37 2.77-1.1 3.5-.73.73-1.9 1.1-3.5 1.1z" fill="#2F87C2"/></g></svg>
