<svg viewBox="0 0 47 47" xmlns="http://www.w3.org/2000/svg"><g fill-rule="nonzero" fill="none"><path d="M36.95 36.782c-.288.285-.588.564-.885.836.716-.645.171-.157.015-.029-.155.129-.316.251-.479.378-.318.25-.648.486-.988.719-.589.408.577-.364-.029.021-.231.144-.467.285-.705.421-.354.204-.717.394-1.084.581-.183.093-.37.178-.561.265.623-.288-.029.004-.132.046-.854.355-1.74.644-2.636.881-.028.004-.717.171-.257.067-.217.048-.427.088-.638.128-.433.081-.867.142-1.3.196-.962.117-1.929.151-2.893.137-1.615-.027-3.417-.351-5.101-.854-6.543-1.96-11.626-7.393-13.372-13.964-.473-1.783-.653-3.415-.625-5.178.013-.885.097-1.768.223-2.644.064-.431.146-.858.236-1.285-.094.459.065-.231.068-.264.075-.276.156-.55.237-.827.12-.407.265-.809.412-1.212.07-.198.151-.395.229-.592.045-.103.334-.755.05-.131.368-.81.797-1.591 1.269-2.347.373-.611-.381.559.021-.035.111-.167.229-.333.349-.499.238-.332.493-.651.749-.967.123-.153.608-.705-.033.019.137-.15.276-.3.415-.447.322-.351.666-.68 1.008-1.005.147-.133.701-.61-.028.023.152-.136.311-.266.468-.393.314-.254.645-.499.977-.738.167-.119.336-.231.501-.346-.693.468-.099.071.041-.014.41-.251.825-.487 1.252-.706.177-.098.361-.188.548-.278.102-.049.738-.333.119-.059.387-.172.783-.324 1.178-.469.399-.148.81-.276 1.221-.4.2-.062.41-.117.618-.171.14-.039.279-.073.422-.105-.229.049-.206.045.054-.014 3.599-.756 7.072-.487 10.529.709.407.142.8.297 1.189.46.513.214 1.273-.139 1.697-.375.722-.399 1.354-.973 1.851-1.627.552-.722 1.485-2.408.215-2.934C29.914.321 26.1-.175 22.39.239c-4.018.45-7.735 2.038-11.056 4.285C4.835 8.913.39 16.557.269 24.435.147 31.676 3.7 38.661 9.707 42.721c6.264 4.232 14.444 4.847 21.341 1.807 3.035-1.337 5.756-3.204 8.113-5.534.628-.625 2.078-2.435 1.149-3.365-.934-.931-2.73.529-3.36 1.153" fill="#0057A3"/><path d="M46.369.345c1.305 1.302-4.864 9.587-13.781 18.502-8.916 8.917-17.198 15.088-18.503 13.782-1.306-1.305 4.864-9.587 13.782-18.506C36.781 5.207 45.067-.963 46.369.345" fill="#FC0"/></g></svg>